<svg xmlns="http://www.w3.org/2000/svg" xmlns:xlink="http://www.w3.org/1999/xlink" width="162" height="40" viewBox="0 0 162 40">
    <defs>
        <path id="a" d="M.702.207h28.121v27.629H.703z"/>
    </defs>
    <g fill="none" fill-rule="evenodd">
        <path fill="#FFF" d="M14.307 30.378c0-1.703-1.4-2.649-3.785-2.649H7.911v5.26c1.021.038 1.93.038 2.611.038 2.385 0 3.785-.983 3.785-2.649m-6.396-13.36v4.731h1.854c2.271 0 3.406-.909 3.406-2.422 0-1.514-1.135-2.346-3.406-2.346-.53 0-1.135 0-1.854.037m14.609 13.89c0 5.147-4.466 8.099-12.036 8.099-2.081 0-7.304-.15-10.484-.378V11.378C3.786 11.113 8.099 11 9.727 11c7.343 0 11.657 2.914 11.657 7.759 0 2.46-1.097 4.39-3.103 5.715 2.725 1.324 4.239 3.519 4.239 6.434M45.378 33.271v5.979H26V12h18.961v5.98h-11.05v4.391h9.726v5.979h-9.726v4.921zM67.854 17.98h-6.472v21.271h-7.91V17.98H47V12h20.854zM81.123 27.478l-2.498-8.327-2.498 8.327h4.996zM73.251 9.387l-1.968-3.482L79.042 0l7.759 5.905-1.969 3.482-5.79-2.952-5.791 2.952zm9.878 24.071h-9.008l-1.665 5.072H65l9.916-26.608c1.363-.681 2.763-1.021 4.126-1.021 2.498 0 4.276 1.325 5.412 4.239l8.667 23.39h-8.327l-1.665-5.072zM119.866 11.379v27.25h-6.245l-11.354-14.421.227 14.421H95V12.022c.832-.606 2.044-1.022 3.255-1.022 1.93 0 3.217.795 4.579 2.611l9.765 12.414-.227-14.646h7.494zM124 38.629V12.022c1.287-.643 2.46-1.022 3.709-1.022 2.612 0 4.202 1.665 4.202 3.86v23.769H124z"/>
        <g transform="translate(133 11)">
            <mask id="b" fill="#fff">
                <use xlink:href="#a"/>
            </mask>
            <path fill="#FFF" d="M16.825 16.784l-2.498-8.327-2.497 8.327h4.995zm2.006 5.98H9.824l-1.666 5.072H.702l9.916-26.608C11.981.547 13.381.207 14.744.207c2.498 0 4.276 1.325 5.412 4.239l8.667 23.39h-8.327l-1.665-5.072z" mask="url(#b)"/>
        </g>
    </g>
</svg>
